<?xml version="1.0" encoding="UTF-8"?>
<!DOCTYPE svg PUBLIC "-//W3C//DTD SVG 1.1//EN" "http://www.w3.org/Graphics/SVG/1.1/DTD/svg11.dtd">
<svg xmlns="http://www.w3.org/2000/svg" version="1.1" width="707px" height="353px" style="shape-rendering:geometricPrecision; text-rendering:geometricPrecision; image-rendering:optimizeQuality; fill-rule:evenodd; clip-rule:evenodd" xmlns:xlink="http://www.w3.org/1999/xlink">
<g><path style="opacity:0.093" fill="#fbe3e4" d="M 628.5,158.5 C 618.167,158.5 607.833,158.5 597.5,158.5C 597.5,159.5 597.5,160.5 597.5,161.5C 596.566,160.432 596.232,159.099 596.5,157.5C 607.346,157.172 618.013,157.506 628.5,158.5 Z"/></g>
<g><path style="opacity:0.093" fill="#fbe5e6" d="M 668.5,158.5 C 679.321,157.505 690.321,157.172 701.5,157.5C 701.737,158.791 701.404,159.791 700.5,160.5C 690.219,158.524 679.552,157.857 668.5,158.5 Z"/></g>
<g><path style="opacity:0.831" fill="#f87e76" d="M 319.5,187.5 C 319.167,187.5 318.833,187.5 318.5,187.5C 318.5,178.167 318.5,168.833 318.5,159.5C 288.833,159.5 259.167,159.5 229.5,159.5C 229.5,168.833 229.5,178.167 229.5,187.5C 228.506,178.014 228.173,168.348 228.5,158.5C 258.664,157.336 288.997,157.169 319.5,158C 320.829,167.931 320.829,177.765 319.5,187.5 Z"/></g>
<g><path style="opacity:0.832" fill="#ee504f" d="M 668.5,158.5 C 679.552,157.857 690.219,158.524 700.5,160.5C 700.737,161.791 700.404,162.791 699.5,163.5C 699.5,162.167 699.5,160.833 699.5,159.5C 689.167,159.5 678.833,159.5 668.5,159.5C 668.715,161.179 668.048,162.179 666.5,162.5C 666.66,160.847 667.326,159.514 668.5,158.5 Z"/></g>
<g><path style="opacity:0.564" fill="#f28083" d="M 70.5,158.5 C 80.3194,157.506 90.3194,157.173 100.5,157.5C 100.5,216.5 100.5,275.5 100.5,334.5C 99.1667,334.5 97.8333,334.5 96.5,334.5C 95.5,334.5 94.5,334.5 93.5,334.5C 95.2646,333.539 97.2646,333.205 99.5,333.5C 99.5,275.5 99.5,217.5 99.5,159.5C 90.0144,158.506 80.3478,158.173 70.5,158.5 Z"/></g>
<g><path style="opacity:0.4" fill="#f39da1" d="M 127.5,158.5 C 127.833,158.5 128.167,158.5 128.5,158.5C 128.5,215.833 128.5,273.167 128.5,330.5C 131.167,330.5 133.833,330.5 136.5,330.5C 133.713,331.477 130.713,331.81 127.5,331.5C 127.5,273.833 127.5,216.167 127.5,158.5 Z"/></g>
<g><path style="opacity:1" fill="#e51016" d="M 467.5,159.5 C 467.168,204.67 467.501,249.67 468.5,294.5C 481.906,294.281 495.239,294.947 508.5,296.5C 511.287,297.477 514.287,297.81 517.5,297.5C 517.5,306.833 517.5,316.167 517.5,325.5C 514.833,325.5 512.167,325.5 509.5,325.5C 500.185,324.768 490.852,324.434 481.5,324.5C 473.414,324.801 465.414,324.467 457.5,323.5C 451.688,322.423 445.688,321.757 439.5,321.5C 439.5,267.5 439.5,213.5 439.5,159.5C 448.833,159.5 458.167,159.5 467.5,159.5 Z"/></g>
<g><path style="opacity:0.816" fill="#f9837c" d="M 33.5,160.5 C 24.25,159.528 14.9167,159.195 5.5,159.5C 5.5,221.167 5.5,282.833 5.5,344.5C 8.16667,344.5 10.8333,344.5 13.5,344.5C 10.9773,345.254 8.31059,345.92 5.5,346.5C 4.91395,346.291 4.41395,345.957 4,345.5C 3.33333,283.167 3.33333,220.833 4,158.5C 13.4223,157.349 22.9223,157.182 32.5,158C 33.2524,158.671 33.5858,159.504 33.5,160.5 Z"/></g>
<g><path style="opacity:1" fill="#e50d15" d="M 33.5,160.5 C 33.1201,162.698 33.7868,164.365 35.5,165.5C 35.1201,167.698 35.7868,169.365 37.5,170.5C 37.5,170.833 37.5,171.167 37.5,171.5C 37.1201,173.698 37.7868,175.365 39.5,176.5C 39.1201,178.698 39.7868,180.365 41.5,181.5C 41.5,181.833 41.5,182.167 41.5,182.5C 41.1201,184.698 41.7868,186.365 43.5,187.5C 44.404,188.209 44.7373,189.209 44.5,190.5C 44.1201,192.698 44.7868,194.365 46.5,195.5C 46.5,195.833 46.5,196.167 46.5,196.5C 46.1201,198.698 46.7868,200.365 48.5,201.5C 48.1201,203.698 48.7868,205.365 50.5,206.5C 51.4345,207.568 51.7678,208.901 51.5,210.5C 51.1201,212.698 51.7868,214.365 53.5,215.5C 53.1201,217.698 53.7868,219.365 55.5,220.5C 55.5,220.833 55.5,221.167 55.5,221.5C 55.1201,223.698 55.7868,225.365 57.5,226.5C 57.1201,228.698 57.7868,230.365 59.5,231.5C 59.5,231.833 59.5,232.167 59.5,232.5C 59.1201,234.698 59.7868,236.365 61.5,237.5C 61.1201,239.698 61.7868,241.365 63.5,242.5C 63.5,242.833 63.5,243.167 63.5,243.5C 63.1201,245.698 63.7868,247.365 65.5,248.5C 66.404,249.209 66.7373,250.209 66.5,251.5C 66.1201,253.698 66.7868,255.365 68.5,256.5C 68.5,256.833 68.5,257.167 68.5,257.5C 68.2594,259.898 68.9261,261.898 70.5,263.5C 71.4984,229.004 71.8317,194.337 71.5,159.5C 80.8333,159.5 90.1667,159.5 99.5,159.5C 99.5,217.5 99.5,275.5 99.5,333.5C 97.2646,333.205 95.2646,333.539 93.5,334.5C 88.5859,334.362 83.9192,335.028 79.5,336.5C 79.1667,336.5 78.8333,336.5 78.5,336.5C 74.1726,336.984 70.1726,336.318 66.5,334.5C 64.9281,331.785 63.9281,328.785 63.5,325.5C 63.405,323.214 62.7384,321.214 61.5,319.5C 61.5979,317.447 60.9313,315.78 59.5,314.5C 57.9281,311.785 56.9281,308.785 56.5,305.5C 56.405,303.214 55.7384,301.214 54.5,299.5C 54.5979,297.447 53.9313,295.78 52.5,294.5C 52.7406,292.102 52.0739,290.102 50.5,288.5C 48.9281,285.785 47.9281,282.785 47.5,279.5C 47.5979,277.447 46.9313,275.78 45.5,274.5C 41.7959,265.057 38.4626,255.391 35.5,245.5C 35.6882,243.897 35.1882,242.563 34,241.5C 33.5,274.832 33.3333,308.165 33.5,341.5C 31.5853,341.216 29.9187,341.549 28.5,342.5C 23.2502,342.302 18.2502,342.969 13.5,344.5C 10.8333,344.5 8.16667,344.5 5.5,344.5C 5.5,282.833 5.5,221.167 5.5,159.5C 14.9167,159.195 24.25,159.528 33.5,160.5 Z"/></g>
<g><path style="opacity:0.804" fill="#e8373f" d="M 70.5,158.5 C 80.3478,158.173 90.0144,158.506 99.5,159.5C 90.1667,159.5 80.8333,159.5 71.5,159.5C 71.8317,194.337 71.4984,229.004 70.5,263.5C 70.5,262.167 70.5,260.833 70.5,259.5C 70.5,225.833 70.5,192.167 70.5,158.5 Z"/></g>
<g><path style="opacity:1" fill="#e50b15" d="M 128.5,158.5 C 155.5,158.5 182.5,158.5 209.5,158.5C 209.5,168.167 209.5,177.833 209.5,187.5C 192.167,187.5 174.833,187.5 157.5,187.5C 157.5,200.5 157.5,213.5 157.5,226.5C 170.323,227.495 183.323,227.829 196.5,227.5C 196.5,236.833 196.5,246.167 196.5,255.5C 183.323,255.171 170.323,255.505 157.5,256.5C 157.5,270.833 157.5,285.167 157.5,299.5C 159.167,299.5 160.833,299.5 162.5,299.5C 168.051,299.473 173.384,298.806 178.5,297.5C 185.457,296.614 192.457,296.28 199.5,296.5C 202.833,296.5 206.167,296.5 209.5,296.5C 209.5,306.167 209.5,315.833 209.5,325.5C 208.5,325.5 207.5,325.5 206.5,325.5C 191.944,325.471 177.611,326.471 163.5,328.5C 162.833,328.5 162.167,328.5 161.5,328.5C 153.929,328.157 146.596,328.823 139.5,330.5C 138.5,330.5 137.5,330.5 136.5,330.5C 133.833,330.5 131.167,330.5 128.5,330.5C 128.5,273.167 128.5,215.833 128.5,158.5 Z"/></g>
<g><path style="opacity:1" fill="#e50a14" d="M 318.5,187.5 C 308.5,187.5 298.5,187.5 288.5,187.5C 288.5,232.167 288.5,276.833 288.5,321.5C 278.822,321.575 269.156,321.908 259.5,322.5C 259.5,277.5 259.5,232.5 259.5,187.5C 249.5,187.5 239.5,187.5 229.5,187.5C 229.5,178.167 229.5,168.833 229.5,159.5C 259.167,159.5 288.833,159.5 318.5,159.5C 318.5,168.833 318.5,178.167 318.5,187.5 Z"/></g>
<g><path style="opacity:0.549" fill="#ef797f" d="M 337.5,158.5 C 337.833,158.5 338.167,158.5 338.5,158.5C 338.5,212.5 338.5,266.5 338.5,320.5C 348.167,320.5 357.833,320.5 367.5,320.5C 367.5,320.833 367.5,321.167 367.5,321.5C 357.5,321.5 347.5,321.5 337.5,321.5C 337.5,267.167 337.5,212.833 337.5,158.5 Z"/></g>
<g><path style="opacity:1" fill="#e50b15" d="M 338.5,158.5 C 365.5,158.5 392.5,158.5 419.5,158.5C 419.5,168.167 419.5,177.833 419.5,187.5C 401.992,187.17 384.659,187.503 367.5,188.5C 367.5,188.833 367.5,189.167 367.5,189.5C 367.5,201.5 367.5,213.5 367.5,225.5C 380.5,225.5 393.5,225.5 406.5,225.5C 406.5,235.167 406.5,244.833 406.5,254.5C 393.5,254.5 380.5,254.5 367.5,254.5C 367.5,276.5 367.5,298.5 367.5,320.5C 357.833,320.5 348.167,320.5 338.5,320.5C 338.5,266.5 338.5,212.5 338.5,158.5 Z"/></g>
<g><path style="opacity:0.407" fill="#f8b9bb" d="M 337.5,158.5 C 364.995,157.502 392.662,157.169 420.5,157.5C 420.5,167.833 420.5,178.167 420.5,188.5C 402.833,188.5 385.167,188.5 367.5,188.5C 384.659,187.503 401.992,187.17 419.5,187.5C 419.5,177.833 419.5,168.167 419.5,158.5C 392.5,158.5 365.5,158.5 338.5,158.5C 338.167,158.5 337.833,158.5 337.5,158.5 Z"/></g>
<g><path style="opacity:0.831" fill="#f87b72" d="M 438.5,158.5 C 448.348,158.173 458.014,158.506 467.5,159.5C 458.167,159.5 448.833,159.5 439.5,159.5C 439.5,213.5 439.5,267.5 439.5,321.5C 445.688,321.757 451.688,322.423 457.5,323.5C 450.91,323.811 444.41,323.478 438,322.5C 437.168,267.665 437.335,212.998 438.5,158.5 Z"/></g>
<g><path style="opacity:0.508" fill="#f28d90" d="M 438.5,158.5 C 448.319,157.506 458.319,157.173 468.5,157.5C 468.5,203.167 468.5,248.833 468.5,294.5C 467.501,249.67 467.168,204.67 467.5,159.5C 458.014,158.506 448.348,158.173 438.5,158.5 Z"/></g>
<g><path style="opacity:0.886" fill="#f46b62" d="M 542.5,158.5 C 552.348,158.173 562.014,158.506 571.5,159.5C 562.167,159.5 552.833,159.5 543.5,159.5C 543.5,215.5 543.5,271.5 543.5,327.5C 547.011,327.899 550.344,328.566 553.5,329.5C 549.452,329.605 545.452,329.272 541.5,328.5C 541.168,271.664 541.501,214.998 542.5,158.5 Z"/></g>
<g><path style="opacity:1" fill="#e50b14" d="M 571.5,159.5 C 571.5,216.5 571.5,273.5 571.5,330.5C 570.5,330.5 569.5,330.5 568.5,330.5C 563.438,330.726 558.438,330.392 553.5,329.5C 550.344,328.566 547.011,327.899 543.5,327.5C 543.5,271.5 543.5,215.5 543.5,159.5C 552.833,159.5 562.167,159.5 571.5,159.5 Z"/></g>
<g><path style="opacity:0.357" fill="#f6afb3" d="M 542.5,158.5 C 552.319,157.506 562.319,157.173 572.5,157.5C 572.5,215.5 572.5,273.5 572.5,331.5C 570.901,331.768 569.568,331.434 568.5,330.5C 569.5,330.5 570.5,330.5 571.5,330.5C 571.5,273.5 571.5,216.5 571.5,159.5C 562.014,158.506 552.348,158.173 542.5,158.5 Z"/></g>
<g><path style="opacity:1" fill="#e71f1c" d="M 628.5,158.5 C 628.66,160.153 629.326,161.486 630.5,162.5C 631.404,163.209 631.737,164.209 631.5,165.5C 631.166,168.491 632.166,170.824 634.5,172.5C 635.404,173.209 635.737,174.209 635.5,175.5C 635.12,177.698 635.787,179.365 637.5,180.5C 639.346,183.54 640.679,186.873 641.5,190.5C 641.12,192.698 641.787,194.365 643.5,195.5C 644.404,196.209 644.737,197.209 644.5,198.5C 644.12,200.698 644.787,202.365 646.5,203.5C 646.5,203.833 646.5,204.167 646.5,204.5C 647.167,207.167 647.833,207.167 648.5,204.5C 653.988,190.2 659.988,176.2 666.5,162.5C 668.048,162.179 668.715,161.179 668.5,159.5C 678.833,159.5 689.167,159.5 699.5,159.5C 699.5,160.833 699.5,162.167 699.5,163.5C 697.344,169.804 694.678,175.804 691.5,181.5C 690.069,182.78 689.402,184.447 689.5,186.5C 687.678,192.136 685.345,197.469 682.5,202.5C 681.069,203.78 680.402,205.447 680.5,207.5C 679.07,211.354 677.403,215.021 675.5,218.5C 674.069,219.78 673.402,221.447 673.5,223.5C 670.461,231.449 667.127,239.282 663.5,247C 664.337,248.011 664.67,249.178 664.5,250.5C 664.166,253.491 665.166,255.824 667.5,257.5C 668.738,259.214 669.405,261.214 669.5,263.5C 669.166,266.491 670.166,268.824 672.5,270.5C 673.404,271.209 673.737,272.209 673.5,273.5C 673.12,275.698 673.787,277.365 675.5,278.5C 676.404,279.209 676.737,280.209 676.5,281.5C 676.166,284.491 677.166,286.824 679.5,288.5C 680.404,289.209 680.737,290.209 680.5,291.5C 680.12,293.698 680.787,295.365 682.5,296.5C 685.541,303.28 688.208,310.28 690.5,317.5C 690.166,320.491 691.166,322.824 693.5,324.5C 695.229,328.021 696.562,331.687 697.5,335.5C 697.166,338.491 698.166,340.824 700.5,342.5C 700.5,342.833 700.5,343.167 700.5,343.5C 700.5,344.833 699.833,345.5 698.5,345.5C 688.623,344.707 678.957,343.374 669.5,341.5C 668.71,340.599 667.71,339.932 666.5,339.5C 659.931,323.345 653.598,307.012 647.5,290.5C 647.688,288.897 647.188,287.563 646,286.5C 645.536,287.094 645.369,287.761 645.5,288.5C 644.397,292.497 642.731,296.164 640.5,299.5C 639.069,300.78 638.402,302.447 638.5,304.5C 638.672,305.492 638.338,306.158 637.5,306.5C 636.326,307.514 635.66,308.847 635.5,310.5C 632.736,318.808 629.402,326.808 625.5,334.5C 623.621,335.341 621.621,335.675 619.5,335.5C 612.097,335.491 604.763,334.824 597.5,333.5C 596.791,332.596 595.791,332.263 594.5,332.5C 594.5,331.5 594.5,330.5 594.5,329.5C 596.322,323.864 598.655,318.531 601.5,313.5C 604.154,311.166 605.488,308.166 605.5,304.5C 606.314,300.884 607.648,297.551 609.5,294.5C 611.913,293.32 612.913,291.32 612.5,288.5C 617.705,275.084 623.205,261.751 629,248.5C 629.667,246.833 629.667,245.167 629,243.5C 627.526,240.244 626.36,236.911 625.5,233.5C 625.598,231.447 624.931,229.78 623.5,228.5C 623.598,226.447 622.931,224.78 621.5,223.5C 619.98,221.11 618.98,218.443 618.5,215.5C 618.598,213.447 617.931,211.78 616.5,210.5C 616.598,208.447 615.931,206.78 614.5,205.5C 612.598,201.345 610.931,197.011 609.5,192.5C 609.598,190.447 608.931,188.78 607.5,187.5C 607.598,185.447 606.931,183.78 605.5,182.5C 602.439,175.649 599.772,168.649 597.5,161.5C 597.5,160.5 597.5,159.5 597.5,158.5C 607.833,158.5 618.167,158.5 628.5,158.5 Z"/></g>
<g><path style="opacity:0.141" fill="#fabdbe" d="M 628.5,158.5 C 630.104,159.287 630.771,160.62 630.5,162.5C 629.326,161.486 628.66,160.153 628.5,158.5 Z"/></g>
<g><path style="opacity:0.882" fill="#f9908a" d="M 33.5,160.5 C 34.9313,161.78 35.5979,163.447 35.5,165.5C 33.7868,164.365 33.1201,162.698 33.5,160.5 Z"/></g>
<g><path style="opacity:0.753" fill="#f99f9d" d="M 35.5,165.5 C 36.5375,166.93 37.2041,168.597 37.5,170.5C 35.7868,169.365 35.1201,167.698 35.5,165.5 Z"/></g>
<g><path style="opacity:0.949" fill="#f88982" d="M 631.5,165.5 C 633.065,167.509 634.065,169.843 634.5,172.5C 632.166,170.824 631.166,168.491 631.5,165.5 Z"/></g>
<g><path style="opacity:0.851" fill="#f68783" d="M 37.5,171.5 C 38.5375,172.93 39.2041,174.597 39.5,176.5C 37.7868,175.365 37.1201,173.698 37.5,171.5 Z"/></g>
<g><path style="opacity:0.859" fill="#fa9590" d="M 635.5,175.5 C 636.931,176.78 637.598,178.447 637.5,180.5C 635.787,179.365 635.12,177.698 635.5,175.5 Z"/></g>
<g><path style="opacity:0.745" fill="#faa2a0" d="M 39.5,176.5 C 40.5375,177.93 41.2041,179.597 41.5,181.5C 39.7868,180.365 39.1201,178.698 39.5,176.5 Z"/></g>
<g><path style="opacity:0.251" fill="#fac1c2" d="M 691.5,181.5 C 691.598,183.553 690.931,185.22 689.5,186.5C 689.402,184.447 690.069,182.78 691.5,181.5 Z"/></g>
<g><path style="opacity:0.859" fill="#f78a85" d="M 41.5,182.5 C 42.5375,183.93 43.2041,185.597 43.5,187.5C 41.7868,186.365 41.1201,184.698 41.5,182.5 Z"/></g>
<g><path style="opacity:0.216" fill="#fbcece" d="M 605.5,182.5 C 606.931,183.78 607.598,185.447 607.5,187.5C 606.069,186.22 605.402,184.553 605.5,182.5 Z"/></g>
<g><path style="opacity:0.282" fill="#f8cacc" d="M 127.5,158.5 C 154.995,157.502 182.662,157.169 210.5,157.5C 210.5,167.833 210.5,178.167 210.5,188.5C 193.167,188.5 175.833,188.5 158.5,188.5C 158.5,201.167 158.5,213.833 158.5,226.5C 158.167,226.5 157.833,226.5 157.5,226.5C 157.5,213.5 157.5,200.5 157.5,187.5C 174.833,187.5 192.167,187.5 209.5,187.5C 209.5,177.833 209.5,168.167 209.5,158.5C 182.5,158.5 155.5,158.5 128.5,158.5C 128.167,158.5 127.833,158.5 127.5,158.5 Z"/></g>
<g><path style="opacity:0.283" fill="#f6b3b6" d="M 228.5,158.5 C 228.173,168.348 228.506,178.014 229.5,187.5C 239.5,187.5 249.5,187.5 259.5,187.5C 259.5,232.5 259.5,277.5 259.5,322.5C 259.167,322.5 258.833,322.5 258.5,322.5C 258.5,277.833 258.5,233.167 258.5,188.5C 248.167,188.5 237.833,188.5 227.5,188.5C 227.173,178.319 227.506,168.319 228.5,158.5 Z"/></g>
<g><path style="opacity:0.153" fill="#f9ced0" d="M 318.5,187.5 C 318.833,187.5 319.167,187.5 319.5,187.5C 309.681,188.494 299.681,188.827 289.5,188.5C 289.5,233.167 289.5,277.833 289.5,322.5C 278.991,323.07 268.658,323.07 258.5,322.5C 258.833,322.5 259.167,322.5 259.5,322.5C 269.156,321.908 278.822,321.575 288.5,321.5C 288.5,276.833 288.5,232.167 288.5,187.5C 298.5,187.5 308.5,187.5 318.5,187.5 Z"/></g>
<g><path style="opacity:0.239" fill="#fac7c7" d="M 607.5,187.5 C 608.931,188.78 609.598,190.447 609.5,192.5C 608.069,191.22 607.402,189.553 607.5,187.5 Z"/></g>
<g><path style="opacity:0.765" fill="#f99b99" d="M 44.5,190.5 C 45.5375,191.93 46.2041,193.597 46.5,195.5C 44.7868,194.365 44.1201,192.698 44.5,190.5 Z"/></g>
<g><path style="opacity:0.769" fill="#fa9f9d" d="M 641.5,190.5 C 642.537,191.93 643.204,193.597 643.5,195.5C 641.787,194.365 641.12,192.698 641.5,190.5 Z"/></g>
<g><path style="opacity:0.871" fill="#f8908a" d="M 46.5,196.5 C 47.9313,197.78 48.5979,199.447 48.5,201.5C 46.7868,200.365 46.1201,198.698 46.5,196.5 Z"/></g>
<g><path style="opacity:0.824" fill="#f8928e" d="M 644.5,198.5 C 645.537,199.93 646.204,201.597 646.5,203.5C 644.787,202.365 644.12,200.698 644.5,198.5 Z"/></g>
<g><path style="opacity:0.757" fill="#f99e9c" d="M 48.5,201.5 C 49.5375,202.93 50.2041,204.597 50.5,206.5C 48.7868,205.365 48.1201,203.698 48.5,201.5 Z"/></g>
<g><path style="opacity:0.224" fill="#fac7c9" d="M 646.5,204.5 C 647.167,204.5 647.833,204.5 648.5,204.5C 647.833,207.167 647.167,207.167 646.5,204.5 Z"/></g>
<g><path style="opacity:0.2" fill="#fbcccc" d="M 682.5,202.5 C 682.598,204.553 681.931,206.22 680.5,207.5C 680.402,205.447 681.069,203.78 682.5,202.5 Z"/></g>
<g><path style="opacity:0.255" fill="#fac5c6" d="M 614.5,205.5 C 615.931,206.78 616.598,208.447 616.5,210.5C 615.069,209.22 614.402,207.553 614.5,205.5 Z"/></g>
<g><path style="opacity:0.925" fill="#f88880" d="M 51.5,210.5 C 52.9313,211.78 53.5979,213.447 53.5,215.5C 51.7868,214.365 51.1201,212.698 51.5,210.5 Z"/></g>
<g><path style="opacity:0.306" fill="#fabcbd" d="M 616.5,210.5 C 617.931,211.78 618.598,213.447 618.5,215.5C 617.069,214.22 616.402,212.553 616.5,210.5 Z"/></g>
<g><path style="opacity:0.788" fill="#f89694" d="M 53.5,215.5 C 54.5375,216.93 55.2041,218.597 55.5,220.5C 53.7868,219.365 53.1201,217.698 53.5,215.5 Z"/></g>
<g><path style="opacity:0.247" fill="#fbc0c1" d="M 675.5,218.5 C 675.598,220.553 674.931,222.22 673.5,223.5C 673.402,221.447 674.069,219.78 675.5,218.5 Z"/></g>
<g><path style="opacity:0.882" fill="#f88c86" d="M 55.5,221.5 C 56.9313,222.78 57.5979,224.447 57.5,226.5C 55.7868,225.365 55.1201,223.698 55.5,221.5 Z"/></g>
<g><path style="opacity:0.192" fill="#fadcdd" d="M 367.5,189.5 C 368.495,200.988 368.828,212.655 368.5,224.5C 381.677,224.171 394.677,224.505 407.5,225.5C 407.167,225.5 406.833,225.5 406.5,225.5C 393.5,225.5 380.5,225.5 367.5,225.5C 367.5,213.5 367.5,201.5 367.5,189.5 Z"/></g>
<g><path style="opacity:0.663" fill="#f9a1a1" d="M 158.5,256.5 C 158.167,256.5 157.833,256.5 157.5,256.5C 170.323,255.505 183.323,255.171 196.5,255.5C 196.5,246.167 196.5,236.833 196.5,227.5C 183.323,227.829 170.323,227.495 157.5,226.5C 157.833,226.5 158.167,226.5 158.5,226.5C 171.629,225.619 184.629,225.452 197.5,226C 198.833,236 198.833,246 197.5,256C 184.504,256.5 171.504,256.667 158.5,256.5 Z"/></g>
<g><path style="opacity:0.263" fill="#fac3c4" d="M 621.5,223.5 C 622.931,224.78 623.598,226.447 623.5,228.5C 622.069,227.22 621.402,225.553 621.5,223.5 Z"/></g>
<g><path style="opacity:0.596" fill="#f99f9f" d="M 406.5,225.5 C 406.833,225.5 407.167,225.5 407.5,225.5C 408.743,235.345 408.743,245.012 407.5,254.5C 407.167,254.5 406.833,254.5 406.5,254.5C 406.5,244.833 406.5,235.167 406.5,225.5 Z"/></g>
<g><path style="opacity:0.773" fill="#f89a97" d="M 57.5,226.5 C 58.5375,227.93 59.2041,229.597 59.5,231.5C 57.7868,230.365 57.1201,228.698 57.5,226.5 Z"/></g>
<g><path style="opacity:0.322" fill="#fab9ba" d="M 623.5,228.5 C 624.931,229.78 625.598,231.447 625.5,233.5C 624.069,232.22 623.402,230.553 623.5,228.5 Z"/></g>
<g><path style="opacity:0.882" fill="#f88f89" d="M 59.5,232.5 C 60.9313,233.78 61.5979,235.447 61.5,237.5C 59.7868,236.365 59.1201,234.698 59.5,232.5 Z"/></g>
<g><path style="opacity:0.784" fill="#f99c99" d="M 61.5,237.5 C 62.5375,238.93 63.2041,240.597 63.5,242.5C 61.7868,241.365 61.1201,239.698 61.5,237.5 Z"/></g>
<g><path style="opacity:0.479" fill="#f1888d" d="M 35.5,245.5 C 34.5018,277.662 34.1684,309.996 34.5,342.5C 32.5,342.5 30.5,342.5 28.5,342.5C 29.9187,341.549 31.5853,341.216 33.5,341.5C 33.3333,308.165 33.5,274.832 34,241.5C 35.1882,242.563 35.6882,243.897 35.5,245.5 Z"/></g>
<g><path style="opacity:0.89" fill="#f6847e" d="M 63.5,243.5 C 64.5375,244.93 65.2041,246.597 65.5,248.5C 63.7868,247.365 63.1201,245.698 63.5,243.5 Z"/></g>
<g><path style="opacity:0.925" fill="#f88a83" d="M 664.5,250.5 C 666.065,252.509 667.065,254.843 667.5,257.5C 665.166,255.824 664.166,253.491 664.5,250.5 Z"/></g>
<g><path style="opacity:0.792" fill="#f89593" d="M 66.5,251.5 C 67.5375,252.93 68.2041,254.597 68.5,256.5C 66.7868,255.365 66.1201,253.698 66.5,251.5 Z"/></g>
<g><path style="opacity:0.027" fill="#fdf6f6" d="M 406.5,254.5 C 406.833,254.5 407.167,254.5 407.5,254.5C 394.677,255.495 381.677,255.829 368.5,255.5C 368.831,277.673 368.497,299.673 367.5,321.5C 367.5,321.167 367.5,320.833 367.5,320.5C 367.5,298.5 367.5,276.5 367.5,254.5C 380.5,254.5 393.5,254.5 406.5,254.5 Z"/></g>
<g><path style="opacity:0.162" fill="#f9d3d6" d="M 157.5,256.5 C 157.833,256.5 158.167,256.5 158.5,256.5C 158.5,270.5 158.5,284.5 158.5,298.5C 159.833,298.5 161.167,298.5 162.5,298.5C 162.5,298.833 162.5,299.167 162.5,299.5C 160.833,299.5 159.167,299.5 157.5,299.5C 157.5,285.167 157.5,270.833 157.5,256.5 Z"/></g>
<g><path style="opacity:0.714" fill="#f68784" d="M 68.5,257.5 C 69.1667,258.167 69.8333,258.833 70.5,259.5C 70.5,260.833 70.5,262.167 70.5,263.5C 68.9261,261.898 68.2594,259.898 68.5,257.5 Z"/></g>
<g><path style="opacity:0.965" fill="#f7847c" d="M 669.5,263.5 C 671.065,265.509 672.065,267.843 672.5,270.5C 670.166,268.824 669.166,266.491 669.5,263.5 Z"/></g>
<g><path style="opacity:0.894" fill="#f98e88" d="M 673.5,273.5 C 674.931,274.78 675.598,276.447 675.5,278.5C 673.787,277.365 673.12,275.698 673.5,273.5 Z"/></g>
<g><path style="opacity:0.325" fill="#f9babb" d="M 45.5,274.5 C 46.9313,275.78 47.5979,277.447 47.5,279.5C 46.0687,278.22 45.4021,276.553 45.5,274.5 Z"/></g>
<g><path style="opacity:0.961" fill="#f7857d" d="M 676.5,281.5 C 678.065,283.509 679.065,285.843 679.5,288.5C 677.166,286.824 676.166,284.491 676.5,281.5 Z"/></g>
<g><path style="opacity:0.216" fill="#fbcccd" d="M 647.5,290.5 C 646.833,289.833 646.167,289.167 645.5,288.5C 645.369,287.761 645.536,287.094 646,286.5C 647.188,287.563 647.688,288.897 647.5,290.5 Z"/></g>
<g><path style="opacity:0.443" fill="#f9adae" d="M 50.5,288.5 C 52.0739,290.102 52.7406,292.102 52.5,294.5C 51.2616,292.786 50.595,290.786 50.5,288.5 Z"/></g>
<g><path style="opacity:0.996" fill="#f6776d" d="M 612.5,288.5 C 612.913,291.32 611.913,293.32 609.5,294.5C 609.992,292.181 610.992,290.181 612.5,288.5 Z"/></g>
<g><path style="opacity:0.906" fill="#f99089" d="M 680.5,291.5 C 681.931,292.78 682.598,294.447 682.5,296.5C 680.787,295.365 680.12,293.698 680.5,291.5 Z"/></g>
<g><path style="opacity:0.357" fill="#f9b5b6" d="M 52.5,294.5 C 53.9313,295.78 54.5979,297.447 54.5,299.5C 53.0687,298.22 52.4021,296.553 52.5,294.5 Z"/></g>
<g><path style="opacity:0.287" fill="#f6b9bd" d="M 199.5,296.5 C 202.962,295.518 206.629,295.185 210.5,295.5C 210.827,305.681 210.494,315.681 209.5,325.5C 209.5,315.833 209.5,306.167 209.5,296.5C 206.167,296.5 202.833,296.5 199.5,296.5 Z"/></g>
<g><path style="opacity:0.78" fill="#f48585" d="M 178.5,297.5 C 173.384,298.806 168.051,299.473 162.5,299.5C 162.5,299.167 162.5,298.833 162.5,298.5C 167.822,298.02 173.155,297.687 178.5,297.5 Z"/></g>
<g><path style="opacity:0.737" fill="#f98f8c" d="M 508.5,296.5 C 512.106,296.211 515.606,296.544 519,297.5C 519.667,307.167 519.667,316.833 519,326.5C 515.983,326.781 512.817,326.781 509.5,326.5C 509.5,326.167 509.5,325.833 509.5,325.5C 512.167,325.5 514.833,325.5 517.5,325.5C 517.5,316.167 517.5,306.833 517.5,297.5C 514.287,297.81 511.287,297.477 508.5,296.5 Z"/></g>
<g><path style="opacity:0.008" fill="#fccece" d="M 54.5,299.5 C 55.7384,301.214 56.405,303.214 56.5,305.5C 54.9261,303.898 54.2594,301.898 54.5,299.5 Z"/></g>
<g><path style="opacity:0.267" fill="#fabebf" d="M 640.5,299.5 C 640.598,301.553 639.931,303.22 638.5,304.5C 638.402,302.447 639.069,300.78 640.5,299.5 Z"/></g>
<g><path style="opacity:0.994" fill="#f88177" d="M 605.5,304.5 C 605.488,308.166 604.154,311.166 601.5,313.5C 602.042,310.088 603.375,307.088 605.5,304.5 Z"/></g>
<g><path style="opacity:0.235" fill="#f9b6b8" d="M 637.5,306.5 C 637.771,308.38 637.104,309.713 635.5,310.5C 635.66,308.847 636.326,307.514 637.5,306.5 Z"/></g>
<g><path style="opacity:0.376" fill="#f8b1b2" d="M 59.5,314.5 C 60.9313,315.78 61.5979,317.447 61.5,319.5C 60.0687,318.22 59.4021,316.553 59.5,314.5 Z"/></g>
<g><path style="opacity:0.929" fill="#f78881" d="M 690.5,317.5 C 692.065,319.509 693.065,321.843 693.5,324.5C 691.166,322.824 690.166,320.491 690.5,317.5 Z"/></g>
<g><path style="opacity:0.004" fill="#fccaca" d="M 61.5,319.5 C 62.7384,321.214 63.405,323.214 63.5,325.5C 61.9261,323.898 61.2594,321.898 61.5,319.5 Z"/></g>
<g><path style="opacity:0.31" fill="#fab6b6" d="M 481.5,324.5 C 490.852,324.434 500.185,324.768 509.5,325.5C 509.5,325.833 509.5,326.167 509.5,326.5C 499.986,326.256 490.653,325.589 481.5,324.5 Z"/></g>
<g><path style="opacity:0.043" fill="#fac0c1" d="M 206.5,325.5 C 192.348,326.947 178.015,327.947 163.5,328.5C 177.611,326.471 191.944,325.471 206.5,325.5 Z"/></g>
<g><path style="opacity:0.38" fill="#f9acac" d="M 161.5,328.5 C 154.371,329.815 147.037,330.482 139.5,330.5C 146.596,328.823 153.929,328.157 161.5,328.5 Z"/></g>
<g><path style="opacity:0.608" fill="#f8adae" d="M 594.5,329.5 C 594.5,330.5 594.5,331.5 594.5,332.5C 595.791,332.263 596.791,332.596 597.5,333.5C 592.894,333.949 591.894,332.616 594.5,329.5 Z"/></g>
<g><path style="opacity:0.188" fill="#fac1c2" d="M 93.5,334.5 C 94.5,334.5 95.5,334.5 96.5,334.5C 91.0266,335.617 85.36,336.283 79.5,336.5C 83.9192,335.028 88.5859,334.362 93.5,334.5 Z"/></g>
<g><path style="opacity:0.282" fill="#facdcf" d="M 625.5,334.5 C 625.03,335.693 624.03,336.36 622.5,336.5C 621.274,336.48 620.274,336.147 619.5,335.5C 621.621,335.675 623.621,335.341 625.5,334.5 Z"/></g>
<g><path style="opacity:0.682" fill="#f9aaab" d="M 66.5,334.5 C 70.1726,336.318 74.1726,336.984 78.5,336.5C 74.7016,337.483 70.7016,337.817 66.5,337.5C 66.5,336.5 66.5,335.5 66.5,334.5 Z"/></g>
<g><path style="opacity:0.914" fill="#f88a83" d="M 697.5,335.5 C 699.065,337.509 700.065,339.843 700.5,342.5C 698.166,340.824 697.166,338.491 697.5,335.5 Z"/></g>
<g><path style="opacity:0.604" fill="#f69698" d="M 666.5,339.5 C 667.71,339.932 668.71,340.599 669.5,341.5C 667.821,341.715 666.821,341.048 666.5,339.5 Z"/></g>
<g><path style="opacity:0.004" fill="#fcd0d0" d="M 28.5,342.5 C 23.7312,343.889 18.7312,344.556 13.5,344.5C 18.2502,342.969 23.2502,342.302 28.5,342.5 Z"/></g>
<g><path style="opacity:0.043" fill="#fbe1e1" d="M 700.5,343.5 C 701.404,344.209 701.737,345.209 701.5,346.5C 700.209,346.737 699.209,346.404 698.5,345.5C 699.833,345.5 700.5,344.833 700.5,343.5 Z"/></g>
</svg>
